<svg width="1024" height="1024" viewBox="0 0 1024 1024" fill="none" xmlns="http://www.w3.org/2000/svg">
<path d="M209.159 612.289L218.068 612.309L217.945 691.794C215.388 691.669 211.647 691.829 209 691.864C209.521 665.544 208.747 638.739 209.159 612.289Z" fill="#12100F"/>
<path d="M267.815 612.364C269.408 612.239 270.776 611.889 272.083 612.659C270.07 615.149 261.342 622.324 258.498 624.749C248.583 633.239 238.59 641.639 228.521 649.949C243.313 662.884 258.456 678.344 273.171 691.794L267.863 691.974H261.128C254.597 685.294 224.881 655.779 218.455 652.294C221.051 650.489 226.156 645.824 228.954 643.484C237.038 636.839 245.028 630.079 252.923 623.209C255.85 620.679 264.517 612.349 267.815 612.364Z" fill="#12100F"/>
<path d="M339.845 612.25L340.022 612.315C340.852 613.435 340.485 619.58 340.484 621.45C340.478 644.93 340.457 668.415 340.439 691.9L332.037 691.795L331.78 691.665C330.762 689.515 331.308 620.755 331.4 612.295L339.845 612.25Z" fill="#12100F"/>
<path d="M464.175 612.307C466.772 612.247 469.369 612.172 471.966 612.082C467.436 619.232 456.689 632.142 451.127 639.272L413.776 687.547L468.645 687.582L467.433 691.817C448.08 692.302 427.479 691.927 408.014 691.977C404.864 691.957 401.714 691.972 398.565 692.022C411.209 676.207 423.726 660.292 436.115 644.277C443.076 635.317 450.363 625.452 457.602 616.797C452.661 617.157 444.22 616.902 439.007 616.902L404.17 616.967L405.224 612.547C424.775 612.212 444.566 612.512 464.175 612.307Z" fill="#12100F"/>
<path d="M538.492 611.507L539.332 611.862C540.702 629.257 537.927 648.482 539.887 666.037C541.682 682.152 554.457 691.312 570.237 688.137C592.797 683.602 591.657 664.037 591.592 646.077L591.517 620.127C591.512 618.407 591.237 612.897 591.977 611.827L596.137 611.207L596.252 623.667L596.357 645.487C596.407 657.877 597.487 674.342 588.017 683.692C572.247 699.262 536.232 695.312 531.427 670.867C529.587 661.507 530.002 652.762 530.017 643.347L530.092 611.627L538.492 611.507Z" fill="#12100F"/>
<path d="M654.417 610.648C658.002 612.668 671.178 627.233 675.018 631.278L718.023 676.908C717.028 660.583 718.147 643.383 717.727 626.968C717.622 622.883 715.158 610.238 722.378 612.298C723.548 614.738 722.592 684.218 722.497 692.123C722.512 693.148 722.668 692.688 722.013 693.503C720.628 693.108 663.553 633.313 658.888 627.988C659.638 634.848 659.357 644.723 659.362 651.888C659.402 665.238 659.362 678.588 659.237 691.938C657.597 691.803 656.127 691.868 654.492 691.908L654.417 610.648Z" fill="#12100F"/>
<path d="M819.05 611.391C821.935 613.481 853.485 684.741 857.02 692.576L846.825 692.606C844.635 686.661 839.95 677.986 838.535 673.131H819.76L795.675 673.106C792.845 679.696 789.765 686.066 786.675 692.536L780.955 692.761L804.445 643.176C809.165 633.116 814.835 621.586 819.05 611.391ZM797.485 669.101L816.795 669.121L836.545 669.086C833.195 662.221 820.215 630.556 817.115 627.021L797.485 669.101Z" fill="#12100F"/>
<path d="M725.585 744.74C730.945 744.235 740.045 744.49 745.65 744.49L781.02 744.51C811.705 744.52 842.47 744.46 873.165 744.515C875.27 744.52 875.795 744.305 877.1 745.33C874.805 746.375 860.995 745.985 857.38 745.985H820.755L760.54 745.975C750.21 745.97 739.815 746.02 729.485 745.93C727.04 745.91 727.12 745.985 725.585 744.74Z" fill="#12100F"/>
<path d="M162.404 744.718C166.587 744.228 175.948 744.493 180.672 744.493H216.58L277.705 744.488C288.202 744.488 298.765 744.463 309.263 744.528C311.763 744.543 311.662 744.398 312.879 745.723C305.717 746.473 295.994 745.993 288.659 745.993L245.416 745.988L192.716 745.983C183.806 745.993 174.766 746.033 165.854 745.953C163.726 745.933 163.769 745.853 162.404 744.718Z" fill="#12100F"/>
<path d="M533.5 725.355C538.855 729.49 551.345 744.77 556.68 750.695L557.465 749.521L559.69 749.035C559.795 753.04 559.865 757.045 559.905 761.055C554.825 756.93 538.995 736.465 536.3 735.305L533.46 735.885C533.42 732.34 533.35 728.9 533.5 725.355Z" fill="#12100F"/>
<path d="M374.248 760.064C372.083 759.844 369.984 759.194 368.077 758.144C356.953 752.134 357.434 735.134 367.871 728.679C369.706 727.544 372.081 726.964 374.164 726.379L375.541 728.589C371.256 730.359 368.325 732.234 366.701 736.779C363.785 744.944 365.953 754.914 374.925 757.679L374.248 760.064Z" fill="#12100F"/>
<path d="M660.61 760.099C659.1 759.959 656.83 759.394 655.445 758.824C651.525 757.234 648.455 754.059 646.99 750.089C642.92 739.274 648.52 729.854 659.235 726.609L661.56 728.614C647.895 733.914 647.825 753.089 660.97 757.614L660.61 760.099Z" fill="#12100F"/>
<path d="M600.29 726.095C602.39 726.035 603.28 725.865 605.245 726.475C605.915 731.725 605.52 753.555 605.51 759.93C603.73 759.955 602.04 760.19 600.64 759.37C599.855 754.5 600.28 732.18 600.29 726.095Z" fill="#12100F"/>
<path d="M429.202 759.983C429.065 750.243 429.138 737.688 429.074 727.723C429.07 727.058 429.545 726.968 430.211 726.538C431.865 726.423 432.454 726.278 434.063 726.773C434.625 729.093 434.173 733.053 434.252 735.533C434.477 742.573 433.793 750.413 434.636 757.383L436.108 759.848C433.831 759.838 431.484 759.928 429.202 759.983Z" fill="#12100F"/>
<path d="M492.667 726.105L493.468 726.49C493.829 729.76 493.728 756.191 493.388 759.401C491.983 760.201 491.029 759.89 489.147 759.91C488.273 758.52 488.558 730.441 488.774 726.961C489.867 726.051 491.169 726.195 492.667 726.105Z" fill="#12100F"/>
<path d="M533.46 735.885L536.3 735.305C535.66 739.76 536.46 758.165 535.25 759.795L534.19 759.775C533.025 758.06 533.465 739.19 533.46 735.885Z" fill="#12100F"/>
<path d="M557.465 749.521C557.06 745.956 556.98 730.595 557.425 726.845L558.365 726.23L559.305 726.586C560.34 729.911 559.5 744.135 559.69 749.035L557.465 749.521Z" fill="#12100F"/>
<path d="M659.235 726.611C664.705 725.991 670.58 726.116 674.835 730.246L674.79 730.176L674.23 731.431C669.515 732.456 669.16 727.881 661.56 728.616L659.235 726.611Z" fill="#12100F"/>
<path d="M374.926 757.68C380.698 758.305 385.137 754.135 388.74 755.045C386.811 760.035 378.655 760.115 374.249 760.065L374.926 757.68Z" fill="#12100F"/>
<path d="M660.97 757.614C668.765 758.389 669.47 754.119 674.37 754.349L674.855 755.019C672.155 760.169 665.695 760.059 660.61 760.099L660.97 757.614Z" fill="#12100F"/>
<path d="M374.165 726.381C377.284 726.126 386.786 726.641 388.418 729.921C388.016 731.436 388.416 730.826 387.145 731.796C382.572 731.311 383.218 728.021 375.542 728.591L374.165 726.381Z" fill="#12100F"/>
<path d="M434.635 757.387C437.879 757.397 446.747 757.027 449.079 758.587L448.603 759.327C444.639 760.047 440.14 759.902 436.108 759.852L434.635 757.387Z" fill="#12100F"/>
<path d="M214.111 831V810.637H220.982C222.307 810.637 223.411 810.869 224.293 811.333C225.181 811.797 225.847 812.43 226.291 813.232C226.735 814.034 226.957 814.945 226.957 815.966C226.957 816.815 226.815 817.541 226.53 818.144C226.245 818.747 225.857 819.234 225.367 819.605C224.876 819.977 224.329 820.245 223.726 820.411V820.57C224.382 820.616 225.019 820.848 225.635 821.266C226.251 821.677 226.759 822.254 227.156 822.996C227.554 823.739 227.753 824.627 227.753 825.661C227.753 826.688 227.524 827.606 227.067 828.415C226.609 829.217 225.907 829.85 224.959 830.314C224.018 830.772 222.818 831 221.359 831H214.111ZM215.97 829.33H221.359C222.93 829.33 224.09 828.982 224.84 828.286C225.595 827.59 225.973 826.715 225.973 825.661C225.973 824.885 225.784 824.183 225.406 823.553C225.035 822.917 224.508 822.413 223.825 822.042C223.149 821.67 222.354 821.485 221.439 821.485H215.97V829.33ZM215.97 819.834H221.151C221.953 819.834 222.655 819.668 223.259 819.337C223.862 819.006 224.332 818.548 224.67 817.965C225.009 817.382 225.178 816.715 225.178 815.966C225.178 814.886 224.826 814.007 224.124 813.331C223.421 812.649 222.374 812.307 220.982 812.307H215.97V819.834Z" fill="#12100F"/>
<path d="M248.48 831V810.637H260.292V812.307H250.339V819.973H259.666V821.644H250.339V829.33H260.491V831H248.48Z" fill="#12100F"/>
<path d="M280.112 812.307V810.637H294.877V812.307H288.424V831H286.565V812.307H280.112Z" fill="#12100F"/>
<path d="M315.303 831V810.637H327.116V812.307H317.163V819.973H326.49V821.644H317.163V829.33H327.315V831H315.303Z" fill="#12100F"/>
<path d="M348.168 831V810.637H354.741C356.186 810.637 357.392 810.915 358.36 811.472C359.335 812.022 360.067 812.771 360.558 813.719C361.055 814.667 361.303 815.734 361.303 816.921C361.303 818.107 361.058 819.178 360.568 820.132C360.077 821.08 359.348 821.833 358.38 822.39C357.412 822.94 356.209 823.215 354.771 823.215H349.6V821.544H354.721C355.788 821.544 356.673 821.346 357.376 820.948C358.079 820.543 358.602 819.993 358.947 819.297C359.298 818.601 359.474 817.809 359.474 816.921C359.474 816.033 359.298 815.24 358.947 814.544C358.602 813.848 358.075 813.301 357.366 812.904C356.663 812.506 355.772 812.307 354.691 812.307H350.028V831H348.168Z" fill="#12100F"/>
<path d="M381.908 810.637H383.738V827.709H383.897L395.958 810.637H397.768V831H395.908V813.948H395.749L383.708 831H381.908V810.637Z" fill="#12100F"/>
<path d="M419.422 831V810.637H421.281V819.973H432.835V810.637H434.695V831H432.835V821.644H421.281V831H419.422Z" fill="#12100F"/>
<path d="M456.364 831H454.415L461.822 810.637H463.811L471.219 831H469.27L462.886 813.053H462.747L456.364 831ZM457.766 823.195H467.868V824.865H457.766V823.195Z" fill="#12100F"/>
<path d="M490.949 831V810.637H497.521C498.966 810.637 500.173 810.915 501.141 811.472C502.115 812.022 502.847 812.771 503.338 813.719C503.835 814.667 504.084 815.734 504.084 816.921C504.084 818.107 503.838 819.178 503.348 820.132C502.857 821.08 502.128 821.833 501.16 822.39C500.193 822.94 498.99 823.215 497.551 823.215H492.381V821.544H497.501C498.569 821.544 499.454 821.346 500.156 820.948C500.859 820.543 501.383 819.993 501.727 819.297C502.079 818.601 502.254 817.809 502.254 816.921C502.254 816.033 502.079 815.24 501.727 814.544C501.383 813.848 500.856 813.301 500.146 812.904C499.444 812.506 498.552 812.307 497.472 812.307H492.808V831H490.949Z" fill="#12100F"/>
<path d="M524.689 831V810.637H526.548V819.973H538.102V810.637H539.962V831H538.102V821.644H526.548V831H524.689Z" fill="#12100F"/>
<path d="M561.63 831H559.682L567.089 810.637H569.078L576.486 831H574.537L568.153 813.053H568.014L561.63 831ZM563.033 823.195H573.135V824.865H563.033V823.195Z" fill="#12100F"/>
<path d="M632.133 831L625.123 821.395H622.19V831H620.331V810.637H622.19V819.735H624.03L631.537 810.637H633.744L626.197 819.814L634.361 831H632.133Z" fill="#12100F"/>
<path d="M652.179 831V829.28H652.716C653.558 829.28 654.224 829.002 654.715 828.445C655.205 827.882 655.566 826.98 655.798 825.74C656.03 824.501 656.183 822.87 656.256 820.848L656.614 810.637H668.565V831H666.706V812.307H658.384L658.055 821.256C657.976 823.41 657.777 825.21 657.459 826.655C657.141 828.094 656.61 829.177 655.868 829.907C655.132 830.636 654.091 831 652.746 831H652.179Z" fill="#12100F"/>
<path d="M692.076 810.637V831H690.217V810.637H692.076Z" fill="#12100F"/>
<path d="M713.73 831V810.637H715.59V819.973H727.144V810.637H729.003V831H727.144V821.644H715.59V831H713.73Z" fill="#12100F"/>
<path d="M752.502 810.637V831H750.642V810.637H752.502Z" fill="#12100F"/>
<path d="M785.958 831L778.948 821.395H776.015V831H774.156V810.637H776.015V819.735H777.855L785.362 810.637H787.569L780.022 819.814L788.186 831H785.958Z" fill="#12100F"/>
<path d="M807.953 831H806.004L813.412 810.637H815.4L822.808 831H820.859L814.476 813.053H814.336L807.953 831ZM809.355 823.195H819.457V824.865H809.355V823.195Z" fill="#12100F"/>
<path d="M277.165 270.264C253.64 394.53 335.306 514.338 459.572 537.864C583.838 561.389 703.646 479.723 727.172 355.457C750.697 231.191 669.031 111.382 544.765 87.8568C420.499 64.3315 300.69 145.998 277.165 270.264Z" fill="#FFF7F3" fill-opacity="0.81"/>
<mask id="mask0_673_515" style="mask-type:alpha" maskUnits="userSpaceOnUse" x="446" y="53" width="362" height="448">
<path d="M608.324 78.7888L447.295 138.736L471.84 280.086L553.173 343.325L501.101 421.25L586.952 499.751L806.418 292.358L711.412 53.6609L608.324 78.7888Z" fill="#D9D9D9" stroke="black"/>
</mask>
<g mask="url(#mask0_673_515)">
<mask id="mask1_673_515" style="mask-type:alpha" maskUnits="userSpaceOnUse" x="272" y="82" width="459" height="459">
<path d="M306.663 192.247C240.575 300.08 274.416 441.07 382.248 507.158C490.081 573.246 631.071 539.405 697.159 431.572C763.247 323.74 729.406 182.749 621.574 116.662C513.741 50.5738 372.751 84.4147 306.663 192.247Z" fill="#FFF7F3" fill-opacity="0.81"/>
</mask>
<g mask="url(#mask1_673_515)">
<path d="M669.181 7.01803C586.085 -63.9407 461.2 -54.1017 390.241 28.9938C319.282 112.09 329.121 236.975 412.217 307.934C495.312 378.893 620.198 369.054 691.157 285.958C762.115 202.862 752.277 77.9768 669.181 7.01803Z" stroke="#DEAA01" stroke-width="14"/>
</g>
</g>
<mask id="mask2_673_515" style="mask-type:alpha" maskUnits="userSpaceOnUse" x="265" y="303" width="188" height="212">
<path d="M451.291 512.964L438.993 449.821C396.871 400.951 311.729 303.291 308.144 303.619C304.559 303.947 278.402 364.579 265.771 394.854L451.291 512.964Z" fill="#D9D9D9" stroke="black"/>
</mask>
<g mask="url(#mask2_673_515)">
<path d="M525.389 93.4367C416.621 82.9665 319.96 162.652 309.489 271.42C299.019 380.188 378.705 476.849 487.473 487.319C596.24 497.789 692.902 418.104 703.372 309.336C713.842 200.568 634.156 103.907 525.389 93.4367Z" stroke="#DEAA01" stroke-width="14"/>
</g>
<path d="M544.763 87.8599C420.497 64.3346 300.689 146.001 277.164 270.267C269.225 312.198 273.266 353.622 286.878 391.01C288.717 389.614 290.577 388.269 292.442 386.98C304.915 378.361 317.661 372.188 325.806 369.581C331.464 367.77 335.475 363.591 338.323 357.87C341.175 352.141 342.842 344.898 343.813 337.042C345.758 321.308 344.896 303.337 345.31 290.371C345.35 289.115 345.494 288.105 345.745 287.329C345.996 286.557 346.371 285.964 346.909 285.625C347.46 285.277 348.095 285.249 348.737 285.424C349.369 285.596 350.043 285.972 350.74 286.483C352.136 287.506 353.742 289.161 355.462 291.185C357.186 293.214 359.047 295.638 360.95 298.222C364.777 303.415 368.742 309.191 372.232 313.831C373.97 316.142 375.569 318.14 376.943 319.605C377.63 320.337 378.253 320.926 378.8 321.352C379.357 321.785 379.796 322.018 380.12 322.089C383.707 322.877 385.885 322.104 387.262 320.489C388.686 318.819 389.353 316.143 389.627 312.905C389.899 309.683 389.775 306.022 389.709 302.452C389.644 298.905 389.635 295.436 390.158 292.675C390.316 291.839 390.513 291.172 390.754 290.675C390.991 290.189 391.306 289.793 391.742 289.623C392.205 289.442 392.663 289.568 393.05 289.817C393.428 290.062 393.794 290.454 394.145 290.932C395.54 292.835 397.112 296.676 398.568 301.161C400.032 305.669 401.399 310.899 402.368 315.633C403.246 319.923 403.805 323.848 403.795 326.466C406.608 325.498 410.893 324.693 415.45 325.144C420.413 325.635 425.726 327.618 429.782 332.523C448.16 353.918 469.909 351.385 478.757 351.785L479.194 351.804L479.233 352.238C479.868 359.235 480.447 373.01 476.588 386.307C472.724 399.619 464.391 412.505 447.185 417.57C417.434 426.329 396.16 446.394 394.74 470.031C393.546 489.908 406.379 512.567 440.511 533.419C446.743 535.153 453.099 536.642 459.571 537.867C502.72 546.036 545.331 541.521 583.561 526.944C607.941 510.615 624.687 492.105 635.464 472.946C651.299 444.791 654.269 415.2 649.592 389.01C644.912 362.812 632.585 340.037 617.861 325.526C603.117 310.996 586.102 304.86 571.959 311.564C541.051 326.215 510.676 313.215 488.124 296.683C476.838 288.409 467.477 279.227 460.939 272.116C457.67 268.56 455.104 265.52 453.356 263.368C452.482 262.293 451.811 261.438 451.359 260.853C451.133 260.56 450.963 260.334 450.847 260.181C450.79 260.105 450.746 260.047 450.716 260.007C450.702 259.988 450.69 259.972 450.683 259.962C450.679 259.957 450.676 259.953 450.674 259.951C450.674 259.95 450.672 259.949 450.672 259.948C450.673 259.946 450.702 259.924 451.074 259.65C450.816 259.285 450.788 259.246 450.786 259.242L450.787 259.24C450.789 259.239 450.792 259.237 450.795 259.235C450.802 259.23 450.814 259.221 450.828 259.21C450.858 259.19 450.902 259.158 450.96 259.116C451.077 259.033 451.251 258.91 451.477 258.749C451.929 258.426 452.593 257.951 453.437 257.341C455.127 256.121 457.541 254.365 460.439 252.218C466.236 247.923 473.968 242.066 481.711 235.817C489.456 229.566 497.204 222.93 503.036 217.075C505.953 214.147 508.38 211.424 510.087 209.052C511.81 206.656 512.737 204.7 512.783 203.286C513.125 192.641 513.376 183.92 513.99 176.615C514.605 169.31 515.584 163.387 517.395 158.341C521.006 148.281 527.89 141.802 541.444 134.726C538.325 117.26 521.237 107.989 508.48 107.498L507.149 107.447L508.185 106.61C516.906 99.5662 538.377 90.383 567.772 93.4432C560.283 91.2138 552.608 89.345 544.763 87.8599ZM451.074 259.65L450.672 259.947L450.368 259.536L450.785 259.242L451.074 259.65Z" fill="#12100F"/>
<path d="M466.1 270.513C474.67 264.307 468.626 255.652 465.238 253.245L456.44 260.051C456.44 260.051 464.121 270.526 466.1 270.513Z" fill="#12100F" stroke="black"/>
<path d="M476.424 353.97C474.045 353.521 473.705 353.457 471.481 354.049C469.199 356.355 473.706 360.897 476.487 361.084C477.925 359.506 477.321 354.816 476.425 353.97L476.424 353.97Z" fill="#12100F"/>
</svg>
